<svg xmlns="http://www.w3.org/2000/svg" width="24" height="24" viewBox="0 0 24 24" fill="none"> <g> <path d="M12 11.25C13.2153 11.25 14.3112 10.7473 15 9.95543C15.6888 10.7473 16.7846 11.25 18 11.25C19.4225 11.25 20.717 10.5587 21.3527 9.46053C21.5602 9.10204 21.4378 8.64321 21.0793 8.43571C20.7208 8.2282 20.262 8.35059 20.0545 8.70908C19.6968 9.32703 18.9047 9.75 18 9.75C16.7302 9.75 15.75 8.93317 15.75 8C15.75 7 14.25 7 14.25 8C14.25 8.93317 13.2698 9.75 12 9.75C10.7302 9.75 9.74996 8.93317 9.74996 8C9.74996 7 8.24996 7 8.24996 8C8.24996 8.93317 7.26976 9.75 5.99996 9.75C5.10721 9.75 4.32334 9.33818 3.95884 8.73179C3.74544 8.37678 3.28465 8.26198 2.92964 8.47537C2.57463 8.68877 2.45983 9.14956 2.67322 9.50457C3.31855 10.5781 4.59738 11.25 5.99996 11.25C7.21528 11.25 8.31116 10.7473 8.99996 9.95543C9.68876 10.7473 10.7846 11.25 12 11.25Z" fill="white"/> <path d="M12 17.25C13.2153 17.25 14.3112 16.7473 15 15.9554C15.6888 16.7473 16.7846 17.25 18 17.25C19.4225 17.25 20.717 16.5587 21.3527 15.4605C21.5602 15.102 21.4378 14.6432 21.0793 14.4357C20.7208 14.2282 20.262 14.3506 20.0545 14.7091C19.6968 15.327 18.9047 15.75 18 15.75C16.7302 15.75 15.75 14.9332 15.75 14C15.75 13 14.25 13 14.25 14C14.25 14.9332 13.2698 15.75 12 15.75C10.7302 15.75 9.74996 14.9332 9.74996 14C9.74996 13 8.24996 13 8.24996 14C8.24996 14.9332 7.26976 15.75 5.99996 15.75C5.10721 15.75 4.32334 15.3382 3.95884 14.7318C3.74544 14.3768 3.28465 14.262 2.92964 14.4754C2.57463 14.6888 2.45983 15.1496 2.67322 15.5046C3.31855 16.5781 4.59738 17.25 5.99996 17.25C7.21528 17.25 8.31116 16.7473 8.99996 15.9554C9.68876 16.7473 10.7846 17.25 12 17.25Z" fill="white"/> </g> </svg>
